<mxfile host="app.diagrams.net" modified="2024-01-13T14:25:43.175Z" agent="Mozilla/5.0 (Windows NT 10.0; Win64; x64) AppleWebKit/537.36 (KHTML, like Gecko) Chrome/120.0.0.0 Safari/537.36" version="22.1.18" etag="v5oV3ELLU_YLoUnYp2FF" type="github">
  <diagram name="PaginÄƒ-1" id="EqJkCEKAwEPMLMYGU455">
    <mxGraphModel>
      <root>
        <mxCell id="0" />
        <mxCell id="1" parent="0" />
      </root>
    </mxGraphModel>
  </diagram>
</mxfile>
